<svg xmlns="http://www.w3.org/2000/svg" viewBox="0 0 640 300" width="640" height="300" role="img" aria-label="Distance factor by places off" font-family="'Bricolage Grotesque', Arial, sans-serif">
  <line x1="52" x2="570" y1="256.0" y2="256.0" stroke="#e6dccb" stroke-width="1"/>
  <text x="44.0" y="260.0" text-anchor="end" fill="#746e66" font-size="11" font-weight="400">×0.00</text>
  <line x1="52" x2="570" y1="202.0" y2="202.0" stroke="#e6dccb" stroke-width="1"/>
  <text x="44.0" y="206.0" text-anchor="end" fill="#746e66" font-size="11" font-weight="400">×0.25</text>
  <line x1="52" x2="570" y1="148.0" y2="148.0" stroke="#e6dccb" stroke-width="1"/>
  <text x="44.0" y="152.0" text-anchor="end" fill="#746e66" font-size="11" font-weight="400">×0.50</text>
  <line x1="52" x2="570" y1="94.0" y2="94.0" stroke="#e6dccb" stroke-width="1"/>
  <text x="44.0" y="98.0" text-anchor="end" fill="#746e66" font-size="11" font-weight="400">×0.75</text>
  <line x1="52" x2="570" y1="40.0" y2="40.0" stroke="#e6dccb" stroke-width="1"/>
  <text x="44.0" y="44.0" text-anchor="end" fill="#746e66" font-size="11" font-weight="400">×1.00</text>
  <path d="M62.4,256.0 L62.4,44.0 Q62.4,40.0 66.4,40.0 L78.4,40.0 Q82.4,40.0 82.4,44.0 L82.4,256.0 Z" fill="#2f6f9f"><title>0 places off: ×1.00</title></path>
  <text x="72.4" y="34.0" text-anchor="middle" fill="#2f3136" font-size="11" font-weight="400">×1.00</text>
  <path d="M96.5,256.0 L96.5,87.2 Q96.5,83.2 100.5,83.2 L112.5,83.2 Q116.5,83.2 116.5,87.2 L116.5,256.0 Z" fill="#2f6f9f"><title>1 places off: ×0.80</title></path>
  <text x="106.5" y="77.2" text-anchor="middle" fill="#2f3136" font-size="11" font-weight="400">×0.80</text>
  <path d="M130.6,256.0 L130.6,113.1 Q130.6,109.1 134.6,109.1 L146.6,109.1 Q150.6,109.1 150.6,113.1 L150.6,256.0 Z" fill="#2f6f9f"><title>2 places off: ×0.68</title></path>
  <path d="M164.7,256.0 L164.7,134.7 Q164.7,130.7 168.7,130.7 L180.7,130.7 Q184.7,130.7 184.7,134.7 L184.7,256.0 Z" fill="#2f6f9f"><title>3 places off: ×0.58</title></path>
  <path d="M198.8,256.0 L198.8,152.0 Q198.8,148.0 202.8,148.0 L214.8,148.0 Q218.8,148.0 218.8,152.0 L218.8,256.0 Z" fill="#2f6f9f"><title>4 places off: ×0.50</title></path>
  <path d="M232.8,256.0 L232.8,169.3 Q232.8,165.3 236.8,165.3 L248.8,165.3 Q252.8,165.3 252.8,169.3 L252.8,256.0 Z" fill="#2f6f9f"><title>5 places off: ×0.42</title></path>
  <path d="M266.9,256.0 L266.9,182.2 Q266.9,178.2 270.9,178.2 L282.9,178.2 Q286.9,178.2 286.9,182.2 L286.9,256.0 Z" fill="#2f6f9f"><title>6 places off: ×0.36</title></path>
  <path d="M301.0,256.0 L301.0,193.0 Q301.0,189.0 305.0,189.0 L317.0,189.0 Q321.0,189.0 321.0,193.0 L321.0,256.0 Z" fill="#2f6f9f"><title>7 places off: ×0.31</title></path>
  <path d="M335.1,256.0 L335.1,203.8 Q335.1,199.8 339.1,199.8 L351.1,199.8 Q355.1,199.8 355.1,203.8 L355.1,256.0 Z" fill="#2f6f9f"><title>8 places off: ×0.26</title></path>
  <path d="M369.2,256.0 L369.2,212.5 Q369.2,208.5 373.2,208.5 L385.2,208.5 Q389.2,208.5 389.2,212.5 L389.2,256.0 Z" fill="#2f6f9f"><title>9 places off: ×0.22</title></path>
  <path d="M403.2,256.0 L403.2,219.0 Q403.2,215.0 407.2,215.0 L419.2,215.0 Q423.2,215.0 423.2,219.0 L423.2,256.0 Z" fill="#2f6f9f"><title>10 places off: ×0.19</title></path>
  <path d="M437.3,256.0 L437.3,225.4 Q437.3,221.4 441.3,221.4 L453.3,221.4 Q457.3,221.4 457.3,225.4 L457.3,256.0 Z" fill="#2f6f9f"><title>11 places off: ×0.16</title></path>
  <path d="M471.4,256.0 L471.4,229.8 Q471.4,225.8 475.4,225.8 L487.4,225.8 Q491.4,225.8 491.4,229.8 L491.4,256.0 Z" fill="#2f6f9f"><title>12 places off: ×0.14</title></path>
  <path d="M505.5,256.0 L505.5,234.1 Q505.5,230.1 509.5,230.1 L521.5,230.1 Q525.5,230.1 525.5,234.1 L525.5,256.0 Z" fill="#2f6f9f"><title>13 places off: ×0.12</title></path>
  <path d="M539.6,256.0 L539.6,238.4 Q539.6,234.4 543.6,234.4 L555.6,234.4 Q559.6,234.4 559.6,238.4 L559.6,256.0 Z" fill="#2f6f9f"><title>14 places off: ×0.10</title></path>
  <text x="549.6" y="228.4" text-anchor="middle" fill="#2f3136" font-size="11" font-weight="400">×0.10</text>
  <text x="72.4" y="274.0" text-anchor="middle" fill="#746e66" font-size="11" font-weight="400">0</text>
  <text x="106.5" y="274.0" text-anchor="middle" fill="#746e66" font-size="11" font-weight="400">1</text>
  <text x="140.6" y="274.0" text-anchor="middle" fill="#746e66" font-size="11" font-weight="400">2</text>
  <text x="174.7" y="274.0" text-anchor="middle" fill="#746e66" font-size="11" font-weight="400">3</text>
  <text x="208.8" y="274.0" text-anchor="middle" fill="#746e66" font-size="11" font-weight="400">4</text>
  <text x="242.8" y="274.0" text-anchor="middle" fill="#746e66" font-size="11" font-weight="400">5</text>
  <text x="276.9" y="274.0" text-anchor="middle" fill="#746e66" font-size="11" font-weight="400">6</text>
  <text x="311.0" y="274.0" text-anchor="middle" fill="#746e66" font-size="11" font-weight="400">7</text>
  <text x="345.1" y="274.0" text-anchor="middle" fill="#746e66" font-size="11" font-weight="400">8</text>
  <text x="379.2" y="274.0" text-anchor="middle" fill="#746e66" font-size="11" font-weight="400">9</text>
  <text x="413.2" y="274.0" text-anchor="middle" fill="#746e66" font-size="11" font-weight="400">10</text>
  <text x="447.3" y="274.0" text-anchor="middle" fill="#746e66" font-size="11" font-weight="400">11</text>
  <text x="481.4" y="274.0" text-anchor="middle" fill="#746e66" font-size="11" font-weight="400">12</text>
  <text x="515.5" y="274.0" text-anchor="middle" fill="#746e66" font-size="11" font-weight="400">13</text>
  <text x="549.6" y="274.0" text-anchor="middle" fill="#746e66" font-size="11" font-weight="400">14</text>
  <text x="570.0" y="294.0" text-anchor="end" fill="#746e66" font-size="11" font-weight="400">places off</text>
</svg>
